<svg xmlns="http://www.w3.org/2000/svg" xmlns:xlink="http://www.w3.org/1999/xlink" version="1.1" id="Your_Icon" x="0px" y="0px" width="100px" height="100px" viewBox="5.0 -10.0 100.0 135.0" enable-background="new 0 0 100 100" xml:space="preserve">
<g>
	<path d="M30.642,47.8c0,0,1.445,8.187-6.201,8.97c0,0,5.84,3.59,9.632-4.146L30.642,47.8z"/>
	<path d="M32.87,53.352c0,0,1.445,8.187-6.201,8.97c0,0,6.923,3.251,10.716-4.485L32.87,53.352z"/>
</g>
<g>
	<path d="M70.315,47.8c0,0-1.445,8.187,6.201,8.97c0,0-5.84,3.59-9.632-4.146L70.315,47.8z"/>
	<path d="M68.088,53.352c0,0-1.445,8.187,6.201,8.97c0,0-6.923,3.251-10.716-4.485L68.088,53.352z"/>
</g>
<g>
	<path d="M47.556,56.161c0,0,1.01,2.015,3.307,2.015c2.295,0,3.307-2.015,3.307-2.015h-3.307H47.556z"/>
</g>
<path d="M85.932,77.682c-11.738-6.164-16.367-9.103-23.154-14.16l-0.981-0.773c0.706-0.551,1.38-1.159,2.021-1.825  c2.752-2.871,4.82-6.764,6.047-11.351l0.129,0.013c0.119,0.012,0.242,0.018,0.365,0.018c1.225,0,2.404-0.617,3.236-1.695  c0.65-0.841,1.072-1.942,1.188-3.101l0.531-5.33c0.121-1.215-0.1-2.423-0.619-3.403c-0.682-1.284-1.824-2.095-3.137-2.226  l-0.588-0.057c-0.004-0.276-0.004-0.556-0.006-0.835c0.715-5.333,1.781-17.62-2.525-23.192C62.855,2.538,57.65,1.497,50.864,1.497  c-6.788,0-11.992,1.041-17.577,8.268c-3.384,4.38-3.449,12.909-2.976,18.948c0.004,0.182,0.008,0.365,0.012,0.546  c0.033,1.573,0.066,3.088,0.043,4.542l-0.502,0.05c-1.312,0.13-2.455,0.941-3.137,2.225c-0.52,0.979-0.739,2.188-0.618,3.403  l0.53,5.33c0.116,1.159,0.538,2.26,1.188,3.102c0.833,1.077,2.012,1.694,3.238,1.694c0.122,0,0.245-0.006,0.366-0.018l0.042-0.005  c1.227,4.585,3.297,8.479,6.049,11.348c0.438,0.455,0.892,0.885,1.361,1.286l-1.658,1.309c-6.787,5.058-11.417,7.996-23.155,14.16  l-0.65,0.342V100h27.091l-3.776-12.915c1.03,1.36,2.144,2.571,3.257,3.518l1.215,1.035l0.676-1.444  c2.182-4.659,6.303-9.728,8.119-11.852c1.816,2.122,5.934,7.188,8.119,11.852l0.677,1.444l1.215-1.035  c1.112-0.946,2.227-2.156,3.257-3.518L59.491,100h27.091V78.023L85.932,77.682z M59.68,70.368c-1.92,2.319-5.178,3.958-9.68,4.88  c-4.502-0.922-7.76-2.561-9.68-4.88c-1.585-1.914-1.798-3.772-1.766-4.802c0.771-0.574,1.572-1.177,2.411-1.812  c2.854,1.813,6.144,2.759,9.701,2.759c3.253,0,6.281-0.792,8.958-2.312c0.627,0.474,1.231,0.928,1.82,1.366  C61.479,66.596,61.264,68.454,59.68,70.368z M56.782,54.799c-0.238,1.703-2.294,3.433-5.919,3.433c-3.627,0-5.683-1.73-5.92-3.433  c-0.237-1.705,2.331-4.866,5.92-4.866S57.019,53.093,56.782,54.799z M36.511,18.139c3.695-0.431,9.055,1.478,14.352,1.478  c5.296,0,10.655-1.909,14.352-1.478c1.549,0.18,2.289,6.484,2.816,12.017c-1.533-0.746-3.541-1.677-6.712-1.677  c-5.657,0-6.144,2.497-10.653,2.497s-4.996-2.497-10.652-2.497c-3.266,0-5.296,0.986-6.847,1.742  C33.644,24.74,34.5,18.373,36.511,18.139z M31.188,47.161c-0.042,0.004-0.084,0.006-0.125,0.006c-0.974,0-1.856-1.129-2.004-2.602  l-0.53-5.33c-0.152-1.536,0.552-2.864,1.574-2.965l2.153-0.215c0.287,1.774,1.238,7.665,7.521,7.665  c5.253,0,7.602-3.691,8.485-5.743c0.882-2.053,0.361-4.117,2.402-4.117s1.521,2.064,2.402,4.117  c0.883,2.052,3.234,5.743,8.486,5.743c6.293,0,7.236-5.907,7.521-7.671c0.01,0,0.02,0,0.029,0.001l2.211,0.22  c1.021,0.102,1.727,1.429,1.574,2.965l-0.531,5.33c-0.146,1.473-1.029,2.602-2.002,2.602c-0.041,0-0.084-0.002-0.125-0.006  l-2.211-0.219c-0.014-0.001-0.027-0.005-0.041-0.007c-0.703,3.502-1.908,6.659-3.574,9.285c-0.686,0.736-1.297,1.336-1.688,1.602  c-5.644,4.185-15.879,10.687-23.712,0c-0.6-0.406-1.71-1.594-2.82-2.862c-1.284-2.352-2.236-5.059-2.832-8.013L31.188,47.161z   M40.427,87.667c-2.964-3.086-6.37-8.706-6.273-13.917c0.044-2.321,0.773-4.357,2.176-6.082c0.276,1.265,0.879,2.759,2.116,4.253  c2.009,2.426,5.133,4.206,9.304,5.304C45.926,79.387,42.657,83.501,40.427,87.667z M59.574,87.667  c-2.23-4.166-5.5-8.28-7.324-10.442c4.172-1.098,7.296-2.878,9.305-5.304c1.236-1.494,1.84-2.988,2.117-4.253  c1.4,1.725,2.131,3.761,2.174,6.082C65.943,78.961,62.537,84.581,59.574,87.667z"/>
<g>
	<circle cx="50.863" cy="88.11" r="1.848"/>
</g>
<g>
	<circle cx="50.863" cy="98.151" r="1.849"/>
</g>
<circle fill="#000000" cx="40.335" cy="36.06" r="5.478"/>
<circle fill="#000000" cx="60.924" cy="36.06" r="5.478"/>
<path d="M30.316,25.043c0,0,15.25-2.89,20.547-2.89c5.296,0,16.404,1.144,16.306,0.886c0,0,2.721,1.492,4.454,1.1  c-0.388-3.38,0.498-9.451-3.184-14.374c-5.47-7.314-10.789-8.268-17.575-8.268c-6.788,0-11.992,1.041-17.577,8.268  c-1.757,2.274-2.615,5.669-2.971,9.25C30.342,19.025,30.316,25.043,30.316,25.043z"/>
<path fill="#000000" d="M33.327,21.447c0-0.854-0.004-1.562-0.039-2.153l0.013,0.019c0.349-3.5,1.165-6.167,2.36-7.713  c4.667-6.04,8.622-7.103,15.204-7.103c6.7,0,10.679,1.057,15.173,7.065c1.929,2.579,2.293,5.737,2.407,8.524  c0,0,0.318,1.361,0,1.361c-0.276,0-1.287-0.454-1.561-0.409c-0.742-0.021-2.658-1.116-4.493-1.253  c-3.773-0.282-8.47-0.632-11.527-0.632C46.943,19.153,38.253,20.579,33.327,21.447z"/>
<path d="M49.918,19.77c0,0-3.495,5.237-2.315,8.76c0,0-3.932-3.644-3.016-6.584c0,0-4.102,3.546-1.846,6.079  c0,0-4.59,0.832-4.822-5.08"/>
<path fill="none" stroke="#000000" stroke-width="3" stroke-miterlimit="10" d="M31.962,18.444c0,0,16.053-7.604,37.901-1.267"/>
<path fill="none" stroke="#000000" stroke-width="4" stroke-miterlimit="10" d="M31.962,24.537c0,0,16.053-7.604,37.901-1.267"/>
<text x="0.0" y="117.5" font-size="5.0" font-weight="bold" font-family="Helvetica Neue, Helvetica, Arial-Unicode, Arial, Sans-serif" fill="#000000">Created by dave stadler</text><text x="0.0" y="122.5" font-size="5.0" font-weight="bold" font-family="Helvetica Neue, Helvetica, Arial-Unicode, Arial, Sans-serif" fill="#000000">from the Noun Project</text></svg>